<?xml version="1.0" standalone="no"?>
<!DOCTYPE svg PUBLIC "-//W3C//DTD SVG 20010904//EN"
 "http://www.w3.org/TR/2001/REC-SVG-20010904/DTD/svg10.dtd">
<svg version="1.0" xmlns="http://www.w3.org/2000/svg"
 width="513.000000pt" height="513.000000pt" viewBox="0 0 513.000000 513.000000"
 preserveAspectRatio="xMidYMid meet">
<metadata>
Created by potrace 1.11, written by Peter Selinger 2001-2013
</metadata>
<g transform="translate(0.000000,513.000000) scale(0.100000,-0.100000)"
fill="#000000" stroke="none">
<path d="M3782 5109 c-4 -4 -50 -29 -102 -56 -128 -68 -222 -122 -241 -139 -8
-8 -19 -14 -23 -14 -19 0 -526 -356 -556 -390 -3 -3 -36 -30 -75 -60 -38 -30
-86 -69 -105 -87 -19 -17 -48 -42 -65 -54 -53 -40 -97 -93 -120 -144 -19 -41
-46 -114 -50 -135 -1 -3 -11 -47 -24 -99 -12 -52 -24 -110 -27 -130 -2 -20 -6
-43 -9 -51 -2 -8 -7 -35 -11 -60 -3 -25 -8 -52 -9 -60 -2 -8 -4 -24 -4 -34 -1
-11 -4 -17 -7 -13 -5 5 8 133 20 207 3 14 7 43 11 65 3 22 12 62 20 89 8 27
15 51 15 52 0 2 -114 -117 -148 -156 -21 -23 -49 -96 -57 -150 -2 -14 -11 -70
-20 -125 -14 -83 -24 -177 -28 -242 0 -7 -4 -13 -8 -13 -8 0 -5 201 4 245 3
17 9 47 12 67 8 61 25 129 37 152 l11 21 -23 -20 c-37 -32 -150 -146 -204
-206 -104 -114 -325 -405 -350 -459 -3 -8 -22 -42 -42 -75 -59 -100 -111 -216
-129 -290 -19 -75 -27 -250 -14 -319 4 -22 9 -57 12 -76 14 -93 127 -390 165
-433 16 -18 14 -31 -4 -19 -17 11 -104 144 -104 159 0 7 -4 13 -10 13 -5 0
-10 7 -10 15 0 9 -7 30 -16 46 -8 17 -17 39 -19 49 -2 9 -12 48 -24 86 -11 38
-23 87 -27 109 -4 22 -9 49 -11 60 -2 11 -7 40 -10 65 -2 25 -8 63 -13 85 l-8
40 -2 -45 c-3 -61 4 -162 16 -210 3 -14 7 -34 9 -45 12 -59 46 -179 60 -206 9
-17 14 -33 12 -35 -3 -3 15 -49 38 -102 40 -90 48 -119 26 -96 -5 5 -28 52
-51 104 -22 52 -45 104 -51 115 -5 11 -16 45 -25 75 -8 30 -17 62 -19 70 -34
119 -43 215 -30 330 3 25 2 39 -1 32 -3 -6 -11 -9 -17 -5 -6 4 -8 0 -4 -10 4
-10 2 -16 -5 -14 -11 2 -35 -60 -46 -123 -14 -83 -6 -261 19 -366 6 -27 12
-56 14 -64 1 -8 9 -35 16 -60 6 -25 13 -52 14 -60 1 -8 17 -59 35 -114 17 -54
34 -111 36 -125 4 -25 4 -25 -12 4 -9 17 -52 94 -95 172 -94 168 -122 229
-145 315 -16 60 -19 78 -23 123 -2 18 -3 17 -12 -5 -19 -45 -21 -63 -24 -195
-2 -119 10 -219 39 -315 25 -82 87 -233 149 -360 107 -220 146 -323 127 -335
-4 -3 -10 8 -13 23 -7 35 -47 125 -53 119 -3 -2 6 -29 19 -58 13 -30 26 -70
30 -89 l6 -35 -15 30 c-9 17 -52 63 -95 104 -44 41 -79 80 -79 87 0 7 -4 15
-10 19 -21 13 12 -52 46 -90 108 -122 144 -197 129 -272 -5 -21 -9 -44 -11
-52 -1 -7 -8 -34 -14 -60 -6 -25 -13 -56 -15 -68 -3 -13 -7 -31 -9 -40 -55
-238 -101 -628 -79 -667 6 -10 25 6 76 66 59 68 68 83 62 106 -7 26 -6 207 0
267 23 208 46 327 95 509 12 42 23 83 25 93 15 76 80 316 99 366 13 34 38 103
56 152 72 199 152 396 245 600 12 28 39 88 60 135 21 47 52 112 70 145 18 33
69 132 115 220 227 439 416 770 639 1115 55 85 141 218 190 295 50 77 102 154
116 170 l26 30 -27 -45 c-15 -25 -39 -63 -53 -85 -14 -22 -31 -49 -38 -60 -68
-115 -197 -332 -279 -470 -56 -93 -143 -246 -194 -340 -51 -93 -101 -183 -111
-200 -9 -16 -36 -65 -58 -108 l-42 -79 58 32 c32 17 103 49 158 71 55 22 114
46 130 54 17 7 67 30 113 50 45 20 104 50 130 67 26 17 61 40 78 51 18 12 51
46 75 76 24 30 64 73 87 95 195 182 264 281 326 466 41 123 75 330 55 330 -5
0 -9 -6 -9 -13 0 -12 -37 -61 -113 -150 -17 -21 -57 -57 -87 -80 -30 -23 -60
-46 -67 -52 -36 -30 -67 -50 -201 -135 -46 -29 -85 -51 -87 -48 -3 2 18 21 45
42 28 21 81 68 119 105 37 36 132 127 210 201 78 74 155 156 170 181 16 25 41
59 56 75 15 16 39 45 54 64 14 19 32 41 39 48 6 7 12 17 12 20 0 4 10 19 23
32 12 14 33 41 47 60 13 19 28 40 32 45 64 79 143 222 192 345 17 43 17 44 -1
28 -10 -9 -31 -20 -47 -24 -26 -6 -28 -5 -21 17 14 43 54 118 76 137 20 19 19
20 -91 18 -61 0 -114 -4 -118 -7z m-1614 -1834 c0 -14 -4 -27 -7 -30 -4 -2 -7
9 -7 26 0 16 3 29 7 29 3 0 7 -11 7 -25z m-828 -760 c-4 -27 -6 -59 -5 -70 2
-11 6 -47 10 -80 4 -33 15 -91 26 -130 11 -38 22 -77 24 -85 1 -8 17 -58 35
-110 18 -52 34 -102 36 -110 2 -8 15 -48 29 -88 13 -41 27 -95 31 -120 3 -26
7 -58 9 -72 3 -14 0 -32 -5 -40 -7 -12 -9 -11 -8 5 2 35 -12 112 -26 147 -8
18 -14 35 -14 38 -1 7 -5 19 -47 133 -20 54 -38 107 -40 117 -2 10 -8 27 -14
38 -5 10 -12 30 -15 43 -2 13 -12 56 -21 94 -19 75 -26 270 -12 319 12 43 16
27 7 -29z m-172 -462 c7 -13 11 -23 8 -23 -9 0 48 -130 149 -335 100 -204 156
-352 154 -404 -1 -20 -2 -21 -6 -6 -9 41 -47 142 -76 200 -16 33 -34 71 -40
85 -7 14 -30 60 -54 103 -23 42 -39 77 -36 77 3 0 -1 8 -10 18 -45 50 -122
284 -124 377 l-2 60 13 -65 c7 -36 18 -75 24 -87z"/>
<path d="M2950 3175 c-18 -19 -58 -47 -89 -62 -31 -15 -59 -32 -63 -38 -4 -5
-8 -7 -8 -3 0 3 -37 -9 -82 -29 -44 -19 -86 -36 -92 -38 -6 -1 -18 -5 -26 -8
-22 -9 -74 -30 -80 -32 -60 -20 -186 -83 -201 -101 -19 -22 -71 -123 -164
-319 -118 -247 -167 -354 -194 -422 -11 -28 -29 -70 -40 -94 -61 -133 -110
-268 -197 -537 l-13 -43 31 23 c17 13 61 40 97 60 123 70 156 89 199 113 24
13 65 40 93 59 27 20 51 36 53 36 3 0 36 30 74 68 144 140 242 295 319 507 23
64 76 174 121 250 9 17 29 50 43 75 55 96 139 259 178 348 44 101 84 212 78
218 -2 2 -18 -12 -37 -31z"/>
<path d="M2230 1747 c-100 -97 -163 -138 -362 -236 -92 -46 -171 -88 -176 -94
-19 -23 -114 -391 -105 -401 3 -3 24 7 47 23 67 46 245 151 255 151 5 0 11 3
13 8 5 11 66 52 78 52 5 0 10 3 11 8 0 4 26 27 57 51 31 24 76 67 100 95 42
49 108 170 116 211 2 11 11 47 19 80 14 55 28 125 24 125 -1 0 -36 -33 -77
-73z"/>
<path d="M1695 1019 c-70 -12 -120 -33 -123 -51 -4 -22 2 -22 33 -2 24 16 66
28 135 40 19 3 36 7 38 9 8 7 -48 10 -83 4z"/>
<path d="M1785 970 c-3 -5 -1 -10 4 -10 6 0 11 5 11 10 0 6 -2 10 -4 10 -3 0
-8 -4 -11 -10z"/>
<path d="M1685 956 c-87 -17 -122 -34 -127 -60 -4 -22 -3 -21 61 11 36 18 75
33 86 33 11 1 31 7 45 15 30 17 16 17 -65 1z"/>
</g>
</svg>
